# xmcd
#
# Track frame offsets: 
#        150
#        13015
#        27412
#        39385
#        51657
#        63450
#        77962
#        91122
#        103097
#        115870
#        128755
#        140187
#        153392
#        166640
#        179185
#        191392
#        204077
#        217837
#
# Disc length: 3067 seconds
#
# Revision: 2
# Processed by: cddbd v1.5.2PL0 Copyright (c) Steve Scherf et al.
# Submitted via: ExactAudioCopy v0.99pb5
#
DISCID=f80bf912
DTITLE=Various Artist - The History Of Country Music - The Forties - Volume 2
DTITLE=Various Artist - CD 2
DYEAR=1993
DGENRE=Country
TTITLE0=Carson Robison - Life gits tee - Jus don't it
TTITLE1=Bill Boyd and The Cowboy Ramblers - Shame on you
TTITLE2=Eddy Arnold - Texarkana baby
TTITLE3=Tex Ritter - Sing, cowboy, sing
TTITLE4=Floyd Tillman - Drivin' nails in my coffin
TTITLE5=Ernest Tubb - My Filipino rose
TTITLE6=George Morgan - Room full of roses
TTITLE7=Bill Monroe - Footprints in the snow
TTITLE8=Jimmie Davis - You are my sunshine
TTITLE9=Roy Acuff - Jole Blon
TTITLE10=Hank Williams With His Drifting Cowboys - My bucket's got a h
TTITLE10=ole in it
TTITLE11=Little Jimmy Dickens - Country boy
TTITLE12=Bob Wills and His Texas Playboys - Smoke on the water
TTITLE13=Al Dexter - Rosalita
TTITLE14=Floyd Tillman - I love you so much it hurts me
TTITLE15=Roy Rogers - Blue shadows on the trail
TTITLE16=Kenny Roberts - I never see Maggie alone
TTITLE17=Gene Autry - Gonna build a big fence around Texas
EXTD=
EXTT0=
EXTT1=
EXTT2=
EXTT3=
EXTT4=
EXTT5=
EXTT6=
EXTT7=
EXTT8=
EXTT9=
EXTT10=
EXTT11=
EXTT12=
EXTT13=
EXTT14=
EXTT15=
EXTT16=
EXTT17=
PLAYORDER=
